<svg width="64" height="64" viewBox="0 0 64 64" fill="none" xmlns="http://www.w3.org/2000/svg">
<rect width="64" height="64" rx="32" fill="white"/>
<path d="M22.0007 25.3792H28.6673M22.0007 42.0459H28.6673M35.334 25.3792H42.0007M35.334 42.0459H42.0007M18.6673 17.0459L15.334 20.3792V45.3792C15.334 46.3792 16.0007 47.0459 17.0007 47.0459H20.334C21.334 47.0459 22.0007 46.3792 22.0007 45.3792V20.3792L18.6673 17.0459ZM32.0007 17.0459L28.6673 20.3792V45.3792C28.6673 46.3792 29.334 47.0459 30.334 47.0459H33.6673C34.6673 47.0459 35.334 46.3792 35.334 45.3792V20.3792L32.0007 17.0459ZM45.334 17.0459L42.0007 20.3792V45.3792C42.0007 46.3792 42.6673 47.0459 43.6673 47.0459H47.0007C48.0007 47.0459 48.6673 46.3792 48.6673 45.3792V20.3792L45.334 17.0459Z" stroke="black" stroke-width="2" stroke-linecap="round" stroke-linejoin="round"/>
</svg>
