<svg width="64" height="64" viewBox="0 0 64 64" fill="none" xmlns="http://www.w3.org/2000/svg">
<rect width="64" height="64" rx="32" fill="white"/>
<path d="M22.8 21.5459H17.2C16.8817 21.5459 16.5765 21.6723 16.3515 21.8974C16.1264 22.1224 16 22.4276 16 22.7459V40.3459C16 40.5035 16.031 40.6595 16.0913 40.8051C16.1517 40.9507 16.24 41.083 16.3515 41.1944C16.4629 41.3059 16.5952 41.3942 16.7408 41.4546C16.8864 41.5149 17.0424 41.5459 17.2 41.5459H22.8C22.9576 41.5459 23.1136 41.5149 23.2592 41.4546C23.4048 41.3942 23.5371 41.3059 23.6485 41.1944C23.76 41.083 23.8483 40.9507 23.9087 40.8051C23.969 40.6595 24 40.5035 24 40.3459V22.7459C24 22.4276 23.8736 22.1224 23.6485 21.8974C23.4235 21.6723 23.1183 21.5459 22.8 21.5459ZM46.8 21.5459H41.2C40.8817 21.5459 40.5765 21.6723 40.3515 21.8974C40.1264 22.1224 40 22.4276 40 22.7459V40.3459C40 40.5035 40.031 40.6595 40.0913 40.8051C40.1516 40.9507 40.24 41.083 40.3515 41.1944C40.4629 41.3059 40.5952 41.3942 40.7408 41.4546C40.8864 41.5149 41.0424 41.5459 41.2 41.5459H46.8C46.9576 41.5459 47.1136 41.5149 47.2592 41.4546C47.4048 41.3942 47.5371 41.3059 47.6485 41.1944C47.76 41.083 47.8484 40.9507 47.9087 40.8051C47.969 40.6595 48 40.5035 48 40.3459V22.7459C48 22.4276 47.8736 22.1224 47.6485 21.8974C47.4235 21.6723 47.1183 21.5459 46.8 21.5459Z" stroke="black" stroke-width="1.5" stroke-linecap="round" stroke-linejoin="round"/>
<path d="M24 31.5459H40M10 36.3459V26.7459C10 26.4276 10.1264 26.1224 10.3515 25.8974C10.5765 25.6723 10.8817 25.5459 11.2 25.5459H14.8C15.1183 25.5459 15.4235 25.6723 15.6485 25.8974C15.8736 26.1224 16 26.4276 16 26.7459V36.3459C16 36.6642 15.8736 36.9694 15.6485 37.1944C15.4235 37.4195 15.1183 37.5459 14.8 37.5459H11.2C10.8817 37.5459 10.5765 37.4195 10.3515 37.1944C10.1264 36.9694 10 36.6642 10 36.3459ZM54 36.3459V26.7459C54 26.4276 53.8736 26.1224 53.6485 25.8974C53.4235 25.6723 53.1183 25.5459 52.8 25.5459H49.2C48.8817 25.5459 48.5765 25.6723 48.3515 25.8974C48.1264 26.1224 48 26.4276 48 26.7459V36.3459C48 36.6642 48.1264 36.9694 48.3515 37.1944C48.5765 37.4195 48.8817 37.5459 49.2 37.5459H52.8C53.1183 37.5459 53.4235 37.4195 53.6485 37.1944C53.8736 36.9694 54 36.6642 54 36.3459Z" stroke="black" stroke-width="1.5" stroke-linecap="round" stroke-linejoin="round"/>
</svg>
