<svg width="110" height="32" viewBox="0 0 110 32" fill="none" xmlns="http://www.w3.org/2000/svg">
<g clip-path="url(#clip0_3022_9370)">
<path fill-rule="evenodd" clip-rule="evenodd" d="M89.4727 24.2272H89.5738V24.3284H93.6119V24.2272H93.7124V14.9403H103.706V24.2272H103.807V24.3284H107.845V2.42273H103.706V10.9023H93.7124V2.42273H89.4727V24.2272Z" fill="black"/>
<path fill-rule="evenodd" clip-rule="evenodd" d="M9.62305 12.0125H9.7242V12.2148H9.92589V12.3153H10.027V12.4165H10.1276V12.5176H10.3299V12.6181H10.4304V12.7193H10.6327V12.8204H10.7333V12.921H10.8344V13.0221H11.0361V13.1233H11.1372V13.2238H11.2384V13.325H11.4401V13.4261H11.5412V13.5267H11.7429V13.6278H11.8441V13.729H11.9446V13.8295H12.1469V13.9307H12.2475V14.0318H12.3486V14.1324H12.5503V14.2335H12.6515V14.3346H12.8531V14.4352H12.9543V14.5363H13.0554V14.6375H13.2571V14.738H13.3583V14.8392H13.56V14.9403H13.6611V15.0409H13.7617V15.142H13.964V15.2432H14.0645V15.3437H14.1657V15.4449H14.3673V15.546H14.4685V15.6466H14.6702V15.7477H14.7713V15.8489H14.8725V15.9494H15.0742V16.0505H15.1753V16.1517H15.2759V16.2522H15.4782V16.3534H15.5787V16.4545H15.781V31.9999H20.3236V0H20.2225V0.101149H20.0208V0.201692H19.9196V0.30284H19.7179V0.403989H19.6168V0.504532H19.4151V0.605681H19.3139V0.70683H19.1123V0.807373H19.0111V0.908521H18.8094V1.00967H18.7083V1.11021H18.5066V1.21136H18.4054V1.31251H18.2037V1.41305H18.1026V1.5142H18.0014V1.61535H17.7997V1.71589H17.6986V1.81704H17.4969V1.91819H17.3958V2.01873H17.1941V2.11988H17.0929V2.22103H16.8912V2.32157H16.7901V2.42272H16.5884V2.52387H16.4872V2.62442H16.2855V2.72556H16.1844V2.82671H15.9827V2.92726H15.8815V3.0284H15.6799V3.12955H15.5787V3.2301H15.377V3.33124H15.2759V3.43239H15.0742V3.53294H14.973V3.63409H14.7713V3.73523H14.6702V3.83578H14.4685V3.93693H14.3673V4.03807H14.1657V4.13862H14.0645V4.23977H13.8628V4.34091H13.7617V4.44146H13.56V4.54261H13.4588V4.64375H13.2571V4.7443H13.156V4.84545H12.9543V4.9466H12.8531V5.04714H12.6515V5.14829H12.5503V5.24944H12.3486V5.34998H12.2475V5.45113H12.1469V5.55228H11.9446V5.65282H11.8441V5.75397H11.6418V5.85512H11.5412V5.95566H11.3389V6.05681H11.2384V6.15796H11.0361V6.2585H10.9356V6.35965H10.7333V6.4608H10.6327V6.56134H10.4304V6.66249H10.3299V6.76364H10.1276V6.86418H10.027V6.96533H9.82474V7.06648H9.7242V7.16702H9.62305V12.0125Z" fill="#7D0007"/>
<path fill-rule="evenodd" clip-rule="evenodd" d="M76.9537 2.11989H76.2469V2.22103H75.7424V2.32158H75.2372V2.42273H74.9344V2.52388H74.6316V2.62442H74.3287V2.72557H74.0259V2.82672H73.8242V2.92726H73.6225V3.02841H73.4202V3.12956H73.2185V3.2301H73.0168V3.33125H72.8145V3.4324H72.6128V3.53294H72.4111V3.63409H72.31V3.73524H72.1083V3.83578H72.0071V3.93693H71.8054V4.03808H71.7043V4.13862H71.5026V4.23977H71.4015V4.34092H71.3003V4.44146H71.1998V4.54261H70.9975V4.64376H70.8969V4.7443H70.7958V4.84545H70.6946V4.9466H70.5941V5.04714H70.4929V5.14829H70.3918V5.24944H70.2912V5.34998H70.1901V5.45113H70.089V5.55228H69.9884V5.65282H69.8873V5.75397H69.7861V5.85512H69.6856V6.05681H69.5844V6.15796H69.4833V6.2585H69.3827V6.35965H69.2816V6.56134H69.1804V6.66249H69.0799V6.86418H68.9787V6.96533H68.8776V7.16703H68.777V7.26817H68.6759V7.46987H68.5747V7.57101H68.4742V7.77271H68.3731V7.975H68.2719V8.17669H68.1714V8.37839H68.0702V8.58068H67.9691V8.78238H67.8685V9.08522H67.7674V9.38806H67.6662V9.6909H67.5657V9.99374H67.4645V10.2966H67.3634V10.8011H67.2628V11.3062H67.1617V12.0125H67.0605V14.5363H67.1617V15.2432H67.2628V15.8489H67.3634V16.3534H67.4645V16.6562H67.5657V16.9591H67.6662V17.2619H67.7674V17.5647H67.8685V17.7664H67.9691V17.9687H68.0702V18.1704H68.1714V18.3721H68.2719V18.5744H68.3731V18.7761H68.4742V18.9778H68.5747V19.1801H68.6759V19.3818H68.777V19.4829H68.8776V19.6846H68.9787V19.7858H69.0799V19.9875H69.1804V20.0886H69.2816V20.2903H69.3827V20.3915H69.4833V20.492H69.5844V20.5932H69.6856V20.6943H69.7861V20.896H69.8873V20.9971H69.9884V21.0977H70.089V21.1988H70.1901V21.3H70.2912V21.4005H70.3918V21.5017H70.4929V21.6028H70.5941V21.7034H70.6946V21.8045H70.7958V21.9057H70.9975V22.0062H71.0986V22.1074H71.1998V22.2085H71.3003V22.309H71.4015V22.4102H71.6032V22.5113H71.7043V22.6119H71.906V22.713H72.0071V22.8142H72.1083V22.9147H72.31V23.0159H72.4111V23.117H72.6128V23.2176H72.8145V23.3187H73.0168V23.4199H73.2185V23.5204H73.4202V23.6216H73.6225V23.7227H73.8242V23.8232H74.127V23.9244H74.3287V24.0255H74.6316V24.1261H74.9344V24.2272H75.2372V24.3284H75.7424V24.4289H76.3481V24.5301H77.0543V24.6312H79.3765V24.5301H80.1838V24.4289H80.5878V24.3284H81.0923V24.2272H81.3952V24.1261H81.698V24.0255H82.0009V23.9244H82.3037V23.8232H82.5054V23.7227H82.7077V23.6216H83.0105V23.5204H83.2122V23.4199H83.3134V23.3187H83.5151V23.2176H83.7168V23.117H83.9191V23.0159H84.0196V22.9147H84.2219V22.8142H84.4236V22.713H84.5247V22.6119H84.7264V22.5113H84.8276V22.4102H84.9281V22.309H85.0293V22.2085H85.231V22.1074H85.3321V22.0062H85.4333V21.7034H85.3321V21.6028H85.231V21.4005H85.1304V21.3H85.0293V21.1988H84.9281V20.9971H84.8276V20.896H84.7264V20.6943H84.6253V20.5932H84.5247V20.492H84.4236V20.2903H84.3224V20.1892H84.2219V19.9875H84.1208V19.8863H84.0196V19.7858H83.9191V19.5835H83.8179V19.4829H83.7168V19.2806H83.6162V19.1801H83.5151V19.0789H83.4139V18.8773H83.3134V18.7761H83.2122V18.675H83.1111V18.7761H82.9094V18.8773H82.8082V18.9778H82.6066V19.0789H82.5054V19.1801H82.3037V19.2806H82.2026V19.3818H82.102V19.4829H81.8997V19.5835H81.698V19.6846H81.4963V19.7858H81.3952V19.8863H81.0923V19.9875H80.8907V20.0886H80.5878V20.1892H80.285V20.2903H79.9821V20.3915H79.477V20.492H78.3668V20.5932H78.0639V20.492H77.0543V20.3915H76.5497V20.2903H76.2469V20.1892H75.9441V20.0886H75.6412V19.9875H75.4395V19.8863H75.2372V19.7858H75.0355V19.6846H74.8339V19.5835H74.7327V19.4829H74.531V19.3818H74.4299V19.2806H74.2282V19.1801H74.127V19.0789H73.9253V18.9778H73.8242V18.8773H73.723V18.7761H73.6225V18.675H73.5213V18.5744H73.4202V18.4733H73.3197V18.3721H73.2185V18.2716H73.1174V18.1704H73.0168V17.9687H72.9157V17.8676H72.8145V17.7664H72.714V17.6659H72.6128V17.4636H72.5117V17.2619H72.4111V17.1608H72.31V16.9591H72.2088V16.7574H72.1083V16.5551H72.0071V16.3534H71.906V16.1517H71.8054V15.8489H71.7043V15.546H71.6032V15.2432H71.5026V14.738H71.4015V14.0318H71.3003V12.6182H71.4015V11.9119H71.5026V11.4068H71.6032V11.104H71.7043V10.8011H71.8054V10.4983H71.906V10.2966H72.0071V10.0949H72.1083V9.89259H72.2088V9.6909H72.31V9.48921H72.4111V9.28691H72.5117V9.18637H72.6128V8.98407H72.714V8.88352H72.8145V8.78238H72.9157V8.68123H73.0168V8.47954H73.1174V8.37839H73.2185V8.27784H73.3197V8.17669H73.4202V8.07555H73.5213V7.975H73.6225V7.87385H73.723V7.77271H73.8242V7.67216H73.9253V7.57101H74.127V7.46987H74.2282V7.36932H74.4299V7.26817H74.531V7.16703H74.6316V7.06648H74.8339V6.96533H75.0355V6.86418H75.2372V6.76364H75.4395V6.66249H75.6412V6.56134H75.9441V6.4608H76.2469V6.35965H76.5497V6.2585H77.0543V6.15796H78.0639V6.05681H78.4679V6.15796H79.477V6.2585H79.881V6.35965H80.285V6.4608H80.5878V6.56134H80.8907V6.66249H81.0923V6.76364H81.294V6.86418H81.5969V6.96533H81.698V7.06648H81.8997V7.16703H82.102V7.26817H82.3037V7.36932H82.4049V7.46987H82.6066V7.57101H82.7077V7.67216H82.8082V7.77271H83.0105V7.87385H83.2122V7.77271H83.3134V7.67216H83.4139V7.46987H83.5151V7.36932H83.6162V7.16703H83.7168V7.06648H83.8179V6.96533H83.9191V6.76364H84.0196V6.66249H84.1208V6.56134H84.2219V6.35965H84.3224V6.2585H84.4236V6.15796H84.5247V5.95566H84.6253V5.85512H84.7264V5.75397H84.8276V5.55228H84.9281V5.45113H85.0293V5.24944H85.1304V5.14829H85.231V5.04714H85.3321V4.84545H85.4333V4.64376H85.3321V4.54261H85.231V4.44146H85.1304V4.34092H85.0293V4.23977H84.8276V4.13862H84.7264V4.03808H84.6253V3.93693H84.4236V3.83578H84.2219V3.73524H84.1208V3.63409H83.9191V3.53294H83.8179V3.4324H83.6162V3.33125H83.4139V3.2301H83.2122V3.12956H83.0105V3.02841H82.8082V2.92726H82.5054V2.82672H82.3037V2.72557H82.102V2.62442H81.7992V2.52388H81.4963V2.42273H81.0923V2.32158H80.6884V2.22103H80.1838V2.11989H79.477V2.01874H76.9537V2.11989Z" fill="black"/>
<path fill-rule="evenodd" clip-rule="evenodd" d="M9.7241 31.9999V12.0125H9.5218V12.1136H9.42126V12.2147H9.32011V12.3153H9.11842V12.4164H9.01727V12.5176H8.81558V12.6181H8.71443V12.7193H8.51274V12.8204H8.41159V12.921H8.31104V13.0221H8.10875V13.1233H8.0082V13.2238H7.80591V13.325H7.70536V13.4261H7.50307V13.5267H7.40252V13.6278H7.30137V13.729H7.09968V13.8295H6.99853V13.9306H6.79684V14.0318H6.69569V14.1323H6.494V14.2335H6.39285V14.3346H6.2917V14.4352H6.09001V14.5363H5.98886V14.6375H5.78717V14.738H5.68602V14.8392H5.48433V14.9403H5.38318V15.0409H5.28264V15.142H5.08034V15.2432H4.9798V15.3437H4.7775V15.4448H4.67696V15.546H4.47466V15.6465H4.37412V15.7477H4.27297V15.8488H4.07128V15.9494H3.97013V16.0505H3.76844V16.1517H3.66729V16.2522H3.4656V16.3534H3.36445V16.4545H3.16276V16.5551H3.06161V16.6562H2.96046V16.7574H2.75877V16.8579H2.65762V16.959H2.45593V17.0602H2.35478V17.1607H2.15309V17.2619H2.05194V17.363H1.95139V17.4636H1.7491V17.5647H1.64855V17.6659H1.44626V17.7664H1.34571V17.8676H1.14342V17.9687H1.04287V18.0693H0.941724V18.1704H0.740033V18.2716H0.638884V18.3721H0.437192V18.4732H0.336044V18.5744H0.134352V18.6749H0.0332031V31.6971H0.234895V31.7982H3.56614V31.8988H6.99853V31.9999H9.7241Z" fill="black"/>
<path fill-rule="evenodd" clip-rule="evenodd" d="M50.8086 24.2272H66.0518V23.3187H65.9506V23.2176H65.6478V23.117H65.1432V23.0159H64.7392V22.9147H64.2347V22.8142H63.7302V22.713H63.3262V22.6119H62.8217V22.5114H62.3165V22.4102H61.9131V22.3091H61.408V22.2085H61.0046V22.1074H60.4995V22.0062H59.995V21.9057H59.591V21.8045H59.0864V21.7034H58.5819V21.6028H58.1779V21.5017H57.6734V21.4005H57.2694V21.3H56.7649V21.1988H56.2597V21.0977H55.8563V20.9971H55.7552V5.45113H56.058V5.34999H56.462V5.24944H56.9665V5.14829H57.3705V5.04715H57.8751V4.9466H58.3796V4.84545H58.7836V4.7443H59.2881V4.64376H59.7933V4.54261H60.1966V4.44146H60.7018V4.34092H61.1052V4.23977H61.6103V4.13862H62.1148V4.03808H62.5188V3.93693H63.0234V3.83578H63.5279V3.73524H63.9319V3.63409H64.4364V3.53294H64.8404V3.4324H65.3449V3.33125H65.8495V3.2301H66.0518V2.42273H50.8086V24.2272Z" fill="black"/>
<path fill-rule="evenodd" clip-rule="evenodd" d="M32.0332 6.35966H38.2917V24.2272H38.3929V24.3284H42.4309V24.2272H42.5315V6.35966H48.8911V2.42273H32.0332V6.35966Z" fill="black"/>
<path fill-rule="evenodd" clip-rule="evenodd" d="M24.5625 24.2272H24.663V24.3284H28.3983V24.2272H28.4994V7.87384H24.5625V24.2272Z" fill="black"/>
<path fill-rule="evenodd" clip-rule="evenodd" d="M26.0779 0.504535H25.6739V0.605683H25.4723V0.706832H25.27V0.807375H25.1694V0.908524H24.9671V1.00967H24.8666V1.11022H24.7654V1.21136H24.6643V1.31251H24.5637V1.5142H24.4626V1.61535H24.3614V1.81705H24.2609V2.01874H24.1597V2.52387H24.0586V3.12956H24.1597V3.53294H24.2609V3.83578H24.3614V4.03808H24.4626V4.13862H24.5637V4.23977H24.6643V4.44146H24.7654V4.54261H24.8666V4.64376H25.0683V4.7443H25.1694V4.84545H25.3711V4.9466H25.5728V5.04714H25.7751V5.14829H26.3808V5.24944H26.6836V5.14829H27.2893V5.04714H27.491V4.9466H27.7938V4.84545H27.895V4.7443H28.0967V4.64376H28.1978V4.54261H28.2984V4.44146H28.3995V4.34092H28.5007V4.13862H28.6012V4.03808H28.7023V3.83578H28.8035V3.63409H28.904V3.33125H29.0052V2.22103H28.904V2.01874H28.8035V1.7159H28.7023V1.61535H28.6012V1.41306H28.5007V1.31251H28.3995V1.21136H28.2984V1.11022H28.1978V1.00967H28.0967V0.908524H27.9955V0.807375H27.895V0.706832H27.5921V0.605683H27.3898V0.504535H26.9865V0.403992H26.0779V0.504535Z" fill="black"/>
<path fill-rule="evenodd" clip-rule="evenodd" d="M34.3541 26.5488H34.2536V27.3568H34.1524V28.1641H34.0513V29.0727H33.9508V29.88H33.8496V30.6874H34.657V30.284H34.7581V29.3755H34.8593V28.3658H34.9598V28.063H35.061V28.3658H35.1621V28.6687H35.2627V28.9715H35.3638V29.2743H35.465V29.6783H35.5655V29.9812H35.6667V30.284H35.7678V30.5869H35.8683V30.6874H36.5752V30.4857H36.6763V30.1829H36.7769V29.88H36.878V29.5772H36.9792V29.2743H37.0797V28.9715H37.1809V28.6687H37.282V28.3658H37.3825V28.063H37.4837V28.467H37.5848V29.476H37.6854V30.4857H37.7865V30.6874H38.5939V30.0817H38.4934V29.1732H38.3922V28.3658H38.2911V27.5585H38.1905V26.6499H38.0894V26.4482H37.1809V26.5488H37.0797V26.8516H36.9792V27.2556H36.878V27.5585H36.7769V27.8613H36.6763V28.1641H36.5752V28.467H36.474V28.7698H36.3735V29.0727H36.2723V29.3755H36.1712V29.1732H36.0706V28.8704H35.9695V28.5675H35.8683V28.1641H35.7678V27.8613H35.6667V27.5585H35.5655V27.2556H35.465V26.9528H35.3638V26.6499H35.2627V26.4482H34.3541V26.5488Z" fill="#7D0007"/>
<path fill-rule="evenodd" clip-rule="evenodd" d="M55.6552 26.5488H55.5547V30.5869H55.6552V30.6874H56.4632V27.9624H56.5638V28.063H56.6649V28.2647H56.766V28.3658H56.8666V28.5675H56.9677V28.6687H57.0689V28.8704H57.1694V28.9715H57.2706V29.0727H57.3717V29.2743H57.4723V29.3755H57.5734V29.5772H57.6746V29.6783H57.7751V29.88H57.8763V29.9812H57.9774V30.1829H58.078V30.284H58.1791V30.3846H58.2802V30.5869H58.3808V30.6874H59.1888V26.4482H58.3808V29.1732H58.2802V29.0727H58.1791V28.8704H58.078V28.7698H57.9774V28.5675H57.8763V28.467H57.7751V28.2647H57.6746V28.1641H57.5734V28.063H57.4723V27.8613H57.3717V27.7601H57.2706V27.5585H57.1694V27.4573H57.0689V27.2556H56.9677V27.1545H56.8666V26.9528H56.766V26.8516H56.6649V26.7511H56.5638V26.5488H56.4632V26.4482H55.6552V26.5488Z" fill="#7D0007"/>
<path fill-rule="evenodd" clip-rule="evenodd" d="M58.1784 12.0125H57.6738V12.1136H57.371V12.2148H57.1687V12.3153H56.967V12.4165H56.8659V12.5176H56.7653V12.6182H56.6642V12.7193H56.563V12.921H56.4625V13.1233H56.3613V13.4261H56.4625V13.729H56.563V13.9307H56.6642V14.0318H56.7653V14.1324H56.8659V14.2335H57.0682V14.3347H57.2699V14.4352H57.4715V14.5363H57.7744V14.6375H58.3801V14.738H58.8852V14.6375H59.4909V14.5363H59.7937V14.4352H60.0966V14.3347H60.1971V14.2335H60.3994V14.1324H60.4999V14.0318H60.6011V13.9307H60.7022V13.729H60.8028V13.5267H60.9039V13.1233H60.8028V12.8204H60.7022V12.7193H60.6011V12.6182H60.4999V12.5176H60.3994V12.4165H60.2983V12.3153H60.0966V12.2148H59.8943V12.1136H59.5914V12.0125H59.188V11.9119H58.1784V12.0125Z" fill="black"/>
<path fill-rule="evenodd" clip-rule="evenodd" d="M63.5283 29.2744H63.4271V29.3755H63.326V29.4767H63.2248V29.5778H63.1237V29.679H62.922V29.7801H62.6192V29.8813H61.7106V27.2569H62.6192V27.358H62.922V27.4592H63.1237V27.5603H63.2248V27.6615H63.326V27.7626H63.4271V27.8638H63.5283V28.0655H63.6294V29.0751H63.5283V29.2768V29.2744ZM60.9039 26.5488H60.8027V30.5869H60.9039V30.6881H62.7209V30.5869H63.1249V30.4858H63.3266V30.3846H63.5283V30.2835H63.6294V30.1823H63.8311V30.0812H63.9323V29.98H64.0334V29.7783H64.1346V29.6772H64.2357V29.4755H64.3369V29.2738H64.438V28.8698H64.5392V28.2641H64.438V27.8601H64.3369V27.6584H64.2357V27.4567H64.1346V27.3556H64.0334V27.1539H63.9323V27.0528H63.8311V26.9516H63.6294V26.8505H63.5283V26.7493H63.3266V26.6482H63.1249V26.547H62.7209V26.4459H60.9039V26.547V26.5488Z" fill="#7D0007"/>
<path fill-rule="evenodd" clip-rule="evenodd" d="M93.6103 28.2647H93.5092V28.3659H93.408V28.467H92.2978V27.2557H93.3075V27.3568H93.5092V27.458H93.6103V27.7608H93.7115V28.0636H93.6103V28.2653V28.2647ZM91.3893 30.6875H92.1967V30.5863H92.2978V29.2738H93.1052V29.4755H93.2063V29.6772H93.3075V29.8789H93.4086V30.0806H93.5098V30.2822H93.6109V30.4839H93.7121V30.6856H94.6206V30.4839H94.5194V30.2822H94.4183V29.9794H94.3171V29.7777H94.216V29.576H94.1148V29.3743H94.0137V29.1726H93.9125V28.971H94.1142V28.8698H94.2154V28.7687H94.3165V28.567H94.4177V28.3653H94.5188V27.3556H94.4177V27.1539H94.3165V26.9522H94.2154V26.8511H94.1142V26.7499H93.9125V26.6488H93.8114V26.5476H93.5086V26.4465H91.3887V30.6862L91.3893 30.6875Z" fill="#7D0007"/>
<path fill-rule="evenodd" clip-rule="evenodd" d="M29.3082 28.1642H29.4093V27.9625H29.5105V27.7608H29.6116V27.6596H29.7128V27.5585H29.8139V27.4573H29.9151V27.3562H30.1168V27.255H31.0253V27.3562H31.227V27.4573H31.4287V27.5585H31.5298V27.6596H31.631V27.8613H31.7321V28.063H31.8333V29.0727H31.7321V29.2744H31.631V29.3755H31.5298V29.5772H31.3281V29.6784H31.227V29.7795H31.0253V29.8807H30.1168V29.7795H29.9151V29.6784H29.8139V29.5772H29.7128V29.4761H29.6116V29.3749H29.5105V29.1732H29.4093V28.9715H29.3082V28.1642ZM30.5195 26.4483H29.9138V26.5494H29.7122V26.6506H29.5105V26.7517H29.3088V26.8529H29.2076V26.954H29.1065V27.0552H29.0053V27.1563H28.9042V27.2574H28.803V27.4591H28.7019V27.6608H28.6007V27.8625H28.4996V28.4682H28.3984V28.5694H28.4996V29.175H28.6007V29.4779H28.7019V29.6796H28.803V29.7807H28.9042V29.9824H29.0053V30.0836H29.1065V30.1847H29.2076V30.2859H29.3088V30.387H29.5105V30.4882H29.7122V30.5893H29.9138V30.6904H30.5195V30.7916H30.7212V30.6904H31.2258V30.5893H31.5286V30.4882H31.7303V30.387H31.8314V30.2859H31.9326V30.1847H32.1343V29.983H32.2354V29.8819H32.3366V29.7807H32.4377V29.579H32.5389V29.3773H32.64V28.9733H32.7412V28.166H32.64V27.762H32.5389V27.5603H32.4377V27.3586H32.3366V27.2574H32.2354V27.1563H32.1343V26.9546H31.9326V26.8535H31.8314V26.7523H31.7303V26.6512H31.5286V26.55H31.2258V26.4489H30.7212V26.3477H30.5195V26.4489V26.4483Z" fill="#7D0007"/>
<path fill-rule="evenodd" clip-rule="evenodd" d="M80.184 29.0727H80.0829V29.2744H79.9817V29.4761H79.8806V29.5772H79.7794V29.6784H79.5777V29.7795H79.376V29.8807H78.5687V29.7795H78.2658V29.6784H78.1647V29.5772H78.0635V29.4761H77.9624V29.3749H77.8612V29.1732H77.7601V28.8704H77.6589V28.2647H77.7601V27.9619H77.8612V27.7602H77.9624V27.659H78.0635V27.5579H78.1647V27.4567H78.2658V27.3556H78.4675V27.2544H79.376V27.3556H79.5777V27.4567H79.7794V27.5579H79.8806V27.659H79.9817V27.8607H80.0829V28.0624H80.184V28.4664H80.2852V28.6681H80.184V29.0721V29.0727ZM78.8715 26.4483H78.2658V26.5494H78.0641V26.6506H77.8624V26.7517H77.7613V26.8529H77.5596V26.954H77.4585V27.0552H77.3573V27.1563H77.2562V27.358H77.155V27.4591H77.0539V27.6608H76.9527V27.9637H76.8516V29.175H76.9527V29.4779H77.0539V29.6796H77.155V29.7807H77.2562V29.9824H77.3573V30.0836H77.4585V30.1847H77.5596V30.2859H77.7613V30.387H77.8624V30.4882H78.0641V30.5893H78.2658V30.6904H78.8715V30.7916H79.0732V30.6904H79.5777V30.5893H79.8806V30.4882H80.0823V30.387H80.1834V30.2859H80.2846V30.1847H80.4863V30.0836H80.5874V29.8819H80.6886V29.7807H80.7897V29.579H80.8909V29.3773H80.992V29.0745H81.0931V28.0648H80.992V27.762H80.8909V27.5603H80.7897V27.3586H80.6886V27.2574H80.5874V27.0558H80.4863V26.9546H80.2846V26.8535H80.1834V26.7523H80.0823V26.6512H79.8806V26.55H79.5777V26.4489H79.0732V26.3477H78.8715V26.4489V26.4483Z" fill="#7D0007"/>
<path fill-rule="evenodd" clip-rule="evenodd" d="M74.7327 28.2647H74.6316V28.3658H74.5305V28.467H73.3191V27.2556H74.4293V27.3568H74.631V27.4579H74.7321V27.7607H74.8333V27.9624H74.7321V28.2653L74.7327 28.2647ZM72.5117 30.6874H73.3191V29.2743H74.2276V29.476H74.3288V29.6777H74.4299V29.8794H74.5311V30.0811H74.6322V30.384H74.7334V30.5856H74.8345V30.6868H75.743V30.4851H75.6419V30.2834H75.5407V30.0817H75.4396V29.88H75.3384V29.6783H75.2373V29.4766H75.1361V29.1738H75.035V28.9721H75.1361V28.871H75.3378V28.6693H75.439V28.5681H75.5401V28.3664H75.6413V27.3568H75.5401V27.1551H75.439V27.0539H75.3378V26.8522H75.2367V26.7511H75.035V26.6499H74.8333V26.5488H74.6316V26.4476H72.5117V30.6874Z" fill="#7D0007"/>
<path fill-rule="evenodd" clip-rule="evenodd" d="M40.0078 30.6874H43.0362V29.88H40.9163V28.8704H42.6322V28.1641H40.9163V27.2556H43.0362V26.4482H40.0078V30.6874Z" fill="#7D0007"/>
<path fill-rule="evenodd" clip-rule="evenodd" d="M102.695 30.6874H105.724V29.88H103.604V28.8704H105.32V28.1641H103.604V27.2556H105.724V26.4482H102.695V30.6874Z" fill="#7D0007"/>
<path fill-rule="evenodd" clip-rule="evenodd" d="M23.4531 30.6874H24.2611V28.8704H26.1787V30.6874H26.9867V26.4482H26.1787V28.063H24.2611V26.4482H23.4531V30.6874Z" fill="#7D0007"/>
<path fill-rule="evenodd" clip-rule="evenodd" d="M86.9492 30.6874H89.9776V29.88H87.7566V28.8704H89.4725V28.1641H87.7566V27.2556H89.8765V27.1545H89.9776V26.5488H89.8765V26.4482H86.9492V30.6874Z" fill="#7D0007"/>
<path fill-rule="evenodd" clip-rule="evenodd" d="M70.1902 28.2647H70.0891V28.3659H69.9879V28.467H68.9782V27.2557H69.8868V27.3568H70.0884V27.458H70.1896V27.5591H70.2907V28.1648H70.1896V28.2659L70.1902 28.2647ZM68.0703 30.6875H68.9788V29.2744H70.1902V29.1732H70.493V29.0721H70.5942V28.971H70.7959V28.8698H70.897V28.6681H70.9982V28.4664H71.0993V28.1636H71.2005V27.5579H71.0993V27.2551H70.9982V27.0534H70.897V26.9522H70.7959V26.8511H70.6947V26.7499H70.5936V26.6488H70.3919V26.5476H70.0891V26.4465H68.0703V30.6862V30.6875Z" fill="#7D0007"/>
<path fill-rule="evenodd" clip-rule="evenodd" d="M84.6257 28.2647H84.5246V28.3659H84.4234V28.467H83.4138V27.2557H84.3223V27.3568H84.524V27.458H84.6251V27.5591H84.7263V28.1648H84.6251V28.2659L84.6257 28.2647ZM82.5059 30.6875H83.4144V29.2744H84.6257V29.1732H84.9286V29.0721H85.0297V28.971H85.2314V28.8698H85.3326V28.6681H85.4337V28.4664H85.5349V28.1636H85.636V27.5579H85.5349V27.2551H85.4337V27.0534H85.3326V26.9522H85.2314V26.8511H85.1303V26.7499H85.0291V26.6488H84.8274V26.5476H84.5246V26.4465H82.5059V30.6862V30.6875Z" fill="#7D0007"/>
<path fill-rule="evenodd" clip-rule="evenodd" d="M51.819 28.9715H51.9202V28.7698H52.0213V28.467H52.1225V28.1641H52.2236V27.8613H52.3248V27.5585H52.4259V27.7601H52.5271V28.063H52.6282V28.3658H52.7294V28.6687H52.8305V28.8704H52.9317V29.1732H51.8215V28.9715H51.819ZM52.0207 26.5488H51.9196V26.8516H51.8184V27.1545H51.7173V27.3562H51.6161V27.659H51.515V27.8607H51.4138V28.1635H51.3127V28.4664H51.2115V28.6681H51.1104V28.9709H51.0092V29.1726H50.9081V29.4754H50.8069V29.6771H50.7058V29.98H50.6046V30.2828H50.5035V30.4845H50.4023V30.6862H51.3109V30.3833H51.412V30.0805H51.5132V29.8788H53.2291V30.0805H53.3302V30.2822H53.4314V30.585H53.5325V30.6862H54.3399V30.3833H54.2387V30.1817H54.1376V29.8788H54.0364V29.6771H53.9353V29.3743H53.8341V29.0714H53.733V28.8697H53.6318V28.5669H53.5307V28.3652H53.4295V28.0624H53.3284V27.7595H53.2272V27.5578H53.1261V27.255H53.0249V27.0533H52.9238V26.7505H52.8226V26.5488H52.7215V26.4476H52.0147V26.5488H52.0207Z" fill="#7D0007"/>
<path fill-rule="evenodd" clip-rule="evenodd" d="M45.6607 26.4483H45.1562V26.5488H44.9539V26.6499H44.7522V26.7511H44.651V26.8516H44.5505V26.9528H44.4493V27.1545H44.3482V27.9625H44.4493V28.1641H44.5505V28.3658H44.651V28.467H44.8533V28.5675H44.9539V28.6687H45.2567V28.7698H45.459V28.8704H45.7618V28.9715H46.0647V29.0727H46.2664V29.1732H46.3675V29.2744H46.4681V29.5772H46.3675V29.7789H46.2664V29.88H45.2567V29.7789H45.055V29.6784H44.8533V29.5772H44.7522V29.4761H44.5505V29.5772H44.4493V29.6784H44.3482V29.7789H44.2476V29.88H44.1465V30.0817H44.2476V30.1829H44.3482V30.284H44.4493V30.3846H44.651V30.4857H44.8533V30.5869H45.1562V30.6874H45.7618V30.7886H45.8624V30.6874H46.3675V30.5869H46.6704V30.4857H46.7709V30.3846H46.9732V30.1829H47.0737V30.0817H47.1749V29.88H47.276V28.9715H47.1749V28.8704H47.0737V28.6687H46.9732V28.5675H46.7709V28.467H46.6704V28.3658H46.3675V28.2647H46.1652V28.1641H45.8624V28.063H45.5595V27.9625H45.3578V27.8613H45.2567V27.7602H45.1562V27.5585H45.2567V27.3568H45.3578V27.2556H45.6607V27.1545H45.9635V27.2556H46.3675V27.3568H46.4681V27.4573H46.6704V27.5585H46.7709V27.4573H46.8721V27.3568H46.9732V27.2556H47.0737V27.1545H47.1749V26.8516H46.9732V26.7511H46.8721V26.6499H46.6704V26.5488H46.4681V26.4483H45.8624V26.3471H45.6607V26.4483Z" fill="#7D0007"/>
<path fill-rule="evenodd" clip-rule="evenodd" d="M108.348 26.4483H107.844V26.5488H107.641V26.6499H107.44V26.7511H107.339V26.8516H107.238V26.9528H107.137V27.1545H107.036V27.9625H107.137V28.1641H107.238V28.3658H107.339V28.467H107.541V28.5675H107.641V28.6687H107.944V28.7698H108.146V28.8704H108.449V28.9715H108.752V29.0727H108.954V29.1732H109.055V29.2744H109.156V29.5772H109.055V29.7789H108.853V29.88H107.944V29.7789H107.743V29.6784H107.541V29.5772H107.44V29.4761H107.238V29.5772H107.137V29.6784H107.036V29.7789H106.935V29.88H106.834V30.0817H106.935V30.1829H107.036V30.284H107.137V30.3846H107.339V30.4857H107.541V30.5869H107.844V30.6874H108.449V30.7886H108.55V30.6874H109.055V30.5869H109.358V30.4857H109.458V30.3846H109.56V30.284H109.661V30.1829H109.761V30.0817H109.862V29.88H109.964V29.0727H109.862V28.8704H109.761V28.6687H109.661V28.5675H109.458V28.467H109.358V28.3658H109.055V28.2647H108.853V28.1641H108.55V28.063H108.247V27.9625H108.045V27.8613H107.944V27.7602H107.844V27.4573H107.944V27.3568H108.045V27.2556H108.348V27.1545H108.651V27.2556H109.055V27.3568H109.156V27.4573H109.358V27.5585H109.458V27.4573H109.56V27.3568H109.661V27.2556H109.761V27.1545H109.862V26.8516H109.661V26.7511H109.56V26.6499H109.358V26.5488H109.055V26.4483H108.55V26.3471H108.348V26.4483Z" fill="#7D0007"/>
<path fill-rule="evenodd" clip-rule="evenodd" d="M95.6289 27.2556H96.8403V30.6874H97.6476V27.2556H98.859V26.4482H95.6289V27.2556Z" fill="#7D0007"/>
<path fill-rule="evenodd" clip-rule="evenodd" d="M100.172 30.6874H101.08V26.4482H100.172V30.6874Z" fill="#7D0007"/>
</g>
<defs>
<clipPath id="clip0_3022_9370">
<rect width="109.932" height="32" fill="white" transform="translate(0.0332031)"/>
</clipPath>
</defs>
</svg>
