<svg width="64" height="64" viewBox="0 0 64 64" fill="none" xmlns="http://www.w3.org/2000/svg">
<rect width="64" height="64" rx="32" fill="white"/>
<path d="M32 21.0459C32.3978 21.0459 32.7794 20.8879 33.0607 20.6066C33.342 20.3253 33.5 19.9437 33.5 19.5459C33.5 19.1481 33.342 18.7665 33.0607 18.4852C32.7794 18.2039 32.3978 18.0459 32 18.0459C31.6022 18.0459 31.2206 18.2039 30.9393 18.4852C30.658 18.7665 30.5 19.1481 30.5 19.5459C30.5 19.9437 30.658 20.3253 30.9393 20.6066C31.2206 20.8879 31.6022 21.0459 32 21.0459Z" fill="black"/>
<path fill-rule="evenodd" clip-rule="evenodd" d="M31.816 14.0629L31.808 14.0649L31.785 14.0689L31.702 14.0849L31.392 14.1469C31.126 14.2009 30.747 14.2809 30.294 14.3839C29.389 14.5899 28.174 14.8909 26.954 15.2679C25.746 15.6409 24.481 16.1049 23.5 16.6479C23.012 16.9179 22.544 17.2349 22.187 17.6079C21.832 17.9769 21.5 18.4939 21.5 19.1429C21.5 20.8879 21.99 22.1659 22.508 23.0229C22.763 23.4449 23.022 23.7599 23.226 23.9759C23.2347 24.0913 23.2523 24.2193 23.279 24.3599C23.38 24.8859 23.633 25.5559 24.213 26.2069C23.9368 27.3812 23.9298 28.6027 24.1924 29.7801C24.455 30.9575 24.9804 32.0602 25.7294 33.0058C26.4784 33.9514 27.4316 34.7154 28.5175 35.2406C29.6035 35.7658 30.7942 36.0386 32.0005 36.0386C33.2068 36.0386 34.3975 35.7658 35.4835 35.2406C36.5694 34.7154 37.5226 33.9514 38.2716 33.0058C39.0206 32.0602 39.546 30.9575 39.8086 29.7801C40.0712 28.6027 40.0642 27.3812 39.788 26.2069C40.367 25.5559 40.62 24.8869 40.721 24.3599C40.7477 24.2199 40.7653 24.0919 40.774 23.9759C41.0466 23.6847 41.2873 23.3653 41.492 23.0229C42.011 22.1659 42.5 20.8879 42.5 19.1429C42.5 18.4939 42.168 17.9769 41.813 17.6079C41.456 17.2349 40.988 16.9179 40.5 16.6479C39.519 16.1049 38.254 15.6409 37.045 15.2679C35.9432 14.9325 34.8295 14.6376 33.706 14.3839C33.2381 14.2773 32.7687 14.1773 32.298 14.0839L32.215 14.0689L32.192 14.0649L32.184 14.0629L32 14.0289L31.816 14.0629ZM32 26.5459C34.207 26.5459 35.689 26.2599 36.68 25.8879C37.519 25.5729 38.008 25.1969 38.29 24.8799C38.392 24.7646 38.4747 24.6533 38.538 24.5459H25.462C25.5253 24.6539 25.6077 24.7653 25.709 24.8799C25.993 25.1969 26.481 25.5729 27.319 25.8879C28.311 26.2599 29.793 26.5459 32 26.5459ZM39.372 22.5459H24.628C24.4745 22.3731 24.3376 22.1863 24.219 21.9879C23.876 21.4209 23.504 20.5039 23.5 19.1639C23.5342 19.1002 23.578 19.0422 23.63 18.9919C23.792 18.8229 24.066 18.6199 24.469 18.3979C25.269 17.9549 26.379 17.5389 27.545 17.1779C28.5983 16.858 29.663 16.5768 30.737 16.3349C31.1568 16.2394 31.5778 16.1494 32 16.0649L32.208 16.1059C32.462 16.1579 32.826 16.2359 33.263 16.3349C34.139 16.5339 35.3 16.8219 36.455 17.1789C37.621 17.5389 38.731 17.9549 39.531 18.3979C39.934 18.6199 40.208 18.8229 40.371 18.9919C40.461 19.0869 40.491 19.1429 40.5 19.1639C40.496 20.5039 40.124 21.4209 39.78 21.9879C39.6617 22.1863 39.5251 22.3731 39.372 22.5459ZM26 28.0459C26 27.8659 26.0077 27.6879 26.023 27.5119C27.361 28.1389 29.277 28.5459 32 28.5459C34.345 28.5459 36.089 28.2459 37.382 27.7609C37.592 27.6829 37.7903 27.5996 37.977 27.5109C37.9923 27.6876 38 27.8659 38 28.0459C38 29.6372 37.3679 31.1634 36.2426 32.2886C35.1174 33.4138 33.5913 34.0459 32 34.0459C30.4087 34.0459 28.8826 33.4138 27.7574 32.2886C26.6321 31.1634 26 29.6372 26 28.0459Z" fill="black"/>
<path d="M41 42.0459C41.667 42.7129 43 43.3789 43 43.3789C43 43.3789 42.302 46.0459 41 46.0459C39.698 46.0459 39 43.3789 39 43.3789C39 43.3789 40.333 42.7129 41 42.0459Z" fill="black"/>
<path fill-rule="evenodd" clip-rule="evenodd" d="M28.5 39.0459C28.5 38.5155 28.7107 38.0068 29.0858 37.6317C29.4609 37.2566 29.9696 37.0459 30.5 37.0459H33.5C34.0304 37.0459 34.5391 37.2566 34.9142 37.6317C35.2893 38.0068 35.5 38.5155 35.5 39.0459V40.4279C35.5 40.7535 35.4204 41.0742 35.2683 41.3621C35.1161 41.65 34.896 41.8964 34.627 42.0799L34.74 42.6459L38.172 38.4789C38.2877 38.3383 38.4395 38.232 38.6111 38.1714C38.7828 38.1108 38.9677 38.0982 39.146 38.1349C41.71 38.6669 44.333 39.4729 46.341 40.5789C48.283 41.6489 50 43.2019 50 45.3439V49.0459C50 49.3111 49.8946 49.5655 49.7071 49.753C49.5196 49.9405 49.2652 50.0459 49 50.0459H15C14.7348 50.0459 14.4804 49.9405 14.2929 49.753C14.1054 49.5655 14 49.3111 14 49.0459V45.3439C14 43.2139 15.75 41.6709 17.692 40.6099C19.708 39.5069 22.332 38.6949 24.865 38.1559C25.0441 38.1179 25.2302 38.1298 25.403 38.1902C25.5758 38.2507 25.7287 38.3575 25.845 38.4989L29.275 42.6649L29.383 42.0869C29.111 41.9038 28.8882 41.6566 28.7343 41.3671C28.5803 41.0777 28.4998 40.7548 28.5 40.4269V39.0459ZM32.52 41.7419L33.099 44.6389L32 45.9729L30.936 44.6809L31.483 41.7279C31.5226 41.5145 31.4918 41.2941 31.3951 41.0998C31.2984 40.9055 31.1411 40.7479 30.947 40.6509L30.5 40.4279V39.0459H33.5V40.4279L33.053 40.6519C32.8568 40.7499 32.6982 40.9097 32.6017 41.1066C32.5052 41.3036 32.4762 41.5268 32.519 41.7419M32.883 48.0459L39.327 40.2209C41.587 40.7269 43.754 41.4379 45.375 42.3309C47.204 43.3379 48 44.3789 48 45.3439V48.0459H32.883ZM24.689 40.2429L31.116 48.0459H16V45.3439C16 44.4099 16.8 43.3769 18.651 42.3639C20.284 41.4709 22.455 40.7559 24.691 40.2429" fill="black"/>
</svg>
