<svg width="64" height="64" viewBox="0 0 64 64" fill="none" xmlns="http://www.w3.org/2000/svg">
<rect width="64" height="64" rx="32" fill="white"/>
<path d="M26.4349 13.5459H40.9269C41.1015 13.5453 41.2736 13.5882 41.4274 13.6709C41.5813 13.7535 41.7121 13.8733 41.808 14.0192C41.9039 14.1652 41.9619 14.3328 41.9767 14.5068C41.9916 14.6808 41.9627 14.8558 41.8929 15.0159L36.2229 28.2499H45.7809C45.8609 28.2507 45.939 28.2743 46.0061 28.3181C46.0731 28.3618 46.1262 28.4238 46.1592 28.4967C46.1922 28.5696 46.2037 28.6505 46.1923 28.7297C46.1809 28.8089 46.1471 28.8832 46.0949 28.9439L26.6029 50.3659C26.5497 50.4454 26.4697 50.5032 26.3776 50.5288C26.2854 50.5545 26.1871 50.5462 26.1005 50.5056C26.0139 50.4649 25.9447 50.3946 25.9055 50.3073C25.8663 50.22 25.8597 50.1216 25.8869 50.0299L27.8209 34.5499H18.8729C18.6991 34.5522 18.5274 34.5115 18.3732 34.4313C18.2191 34.3511 18.0871 34.234 17.9893 34.0903C17.8914 33.9467 17.8307 33.7811 17.8124 33.6082C17.7942 33.4354 17.8191 33.2607 17.8849 33.0999L25.4449 14.1959C25.525 14.0001 25.6624 13.8331 25.8391 13.7168C26.0157 13.6005 26.2234 13.5422 26.4349 13.5459Z" stroke="black" stroke-width="1.5" stroke-linecap="round" stroke-linejoin="round"/>
</svg>
